#!OML:ASF I:\Actors\actors\Patient Classification 1\Patient 1\Session 1\Subject1.ASF
:FULLY-SPECIFIED
:DEGREES
324
root 0.57927 17.5847 8.09984 8.30027 -2.44879 -6.59688
lowerback 12.8379 1.75338 8.61678
upperback -12.3487 4.1258 -1.91745
thorax -20.7142 0.278566 -8.39786
lowerneck -3.29354 9.39402 4.99225
upperneck -23.8587 10.4244 -14.2242
head -5.51425 5.65504 -5.67894
rclavicle 1.98785e-016 1.98785e-014
rhumerus -57.8772 -21.9828 -67.3355
rradius 18.3294
rwrist 44.7985
rhand -0.318994 -23.4747
rfingers 7.12502
rthumb 25.2848 -51.819
lclavicle 1.98785e-016 1.98785e-014
lhumerus -41.9656 18.6087 69.5006
lradius 15.3813
lwrist -43.6002
lhand -16.2007 -18.8911
lfingers 7.12502
lthumb 10.0065 10.851
rfemur -0.892141 26.0308 23.4625
rtibia 0.637824
rfoot -11.5976 -25.6882
rtoes 2.8698
lfemur 5.7902 -38.4245 -14.0207
ltibia -4.0137
lfoot -14.4496 45.1637
ltoes 1.84938
325
root 0.579367 17.5853 8.10002 8.32222 -2.46311 -6.56
lowerback 12.8132 1.78041 8.59611
upperback -12.3291 4.14731 -1.95944
thorax -20.6648 0.29146 -8.43732
lowerneck -3.3412 9.8442 4.99396
upperneck -23.2446 11.0724 -14.3079
head -5.24436 5.96595 -5.6599
rclavicle 4.7112e-014 -2.3059e-014
rhumerus -57.8755 -21.964 -67.3969
rradius 18.3692
rwrist 44.7235
rhand -0.246903 -23.4489
rfingers 7.12502
rthumb 25.3539 -51.7834
lclavicle 4.7112e-014 -2.3059e-014
lhumerus -41.8366 19.1014 69.2117
lradius 15.155
lwrist -44.3405
lhand -16.3226 -19.0311
lfingers 7.12502
lthumb 9.88896 10.7166
rfemur -0.924893 26.0216 23.3962
rtibia 0.635097
rfoot -11.6301 -25.6723
rtoes 2.941
lfemur 5.79552 -38.5941 -14.101
ltibia -3.97714
lfoot -14.6659 45.306
ltoes 2.1074
326
root 0.579431 17.5854 8.10104 8.33821 -2.47006 -6.53788
lowerback 12.7971 1.80629 8.58641
upperback -12.3169 4.17309 -1.99103
thorax -20.63 0.304228 -8.47335
lowerneck -3.00596 10.2185 5.40144
upperneck -22.95 11.5295 -14.9569
head -5.08206 6.20655 -5.91908
rclavicle -1.59028e-014 -1.19271e-014
rhumerus -57.8694 -21.8475 -67.557
rradius 18.445
rwrist 44.4799
rhand -0.19468 -23.4535
rfingers 7.12502
rthumb 25.4039 -51.7809
lclavicle -1.59028e-014 -1.19271e-014
lhumerus -41.7198 19.2898 69.1282
lradius 15.0046
lwrist -44.6568
lhand -16.413 -19.0142
lfingers 7.12502
lthumb 9.80168 10.7377
rfemur -0.936461 26.0582 23.363
rtibia 0.625953
rfoot -11.6343 -25.7067
rtoes 2.92705
lfemur 5.74361 -38.5003 -14.088
ltibia -3.95776
lfoot -14.6511 45.212
ltoes 2.03931
327
root 0.579402 17.5851 8.10155 8.34808 -2.46533 -6.56881
lowerback 12.8026 1.82834 8.62271
upperback -12.3078 4.20901 -2.01027
thorax -20.6097 0.314422 -8.52598
lowerneck -2.65768 10.5562 5.8359
upperneck -22.6616 11.9431 -15.6094
head -4.92136 6.42564 -6.18253
rclavicle 9.34288e-015 -7.95139e-015
rhumerus -57.8679 -21.726 -67.7367
rradius 18.4934
rwrist 44.2321
rhand -0.231878 -23.4856
rfingers 7.12502
rthumb 25.3683 -51.8181
lclavicle 9.34288e-015 -7.95139e-015
lhumerus -41.6214 19.1579 69.2218
lradius 14.9573
lwrist -44.6529
lhand -16.4983 -18.993
lfingers 7.12502
lthumb 9.71942 10.7627
rfemur -0.944048 26.0434 23.3974
rtibia 0.630134
rfoot -11.5902 -25.6954
rtoes 2.84333
lfemur 5.70533 -38.3651 -14.0037
ltibia -3.97901
lfoot -14.4217 45.0977
ltoes 1.59085
328
root 0.579116 17.5855 8.1017 8.35194 -2.44371 -6.60464
lowerback 12.8079 1.84452 8.66342
upperback -12.2907 4.23664 -2.03281
thorax -20.58 0.321036 -8.58194
lowerneck -2.50073 10.9082 6.04472
upperneck -22.2218 12.4266 -15.9413
head -4.71545 6.66666 -6.28745
rclavicle 2.90226e-014 1.98785e-014
rhumerus -57.8926 -21.7451 -67.7792
rradius 18.5081
rwrist 44.2121
rhand -0.304746 -23.5226
rfingers 7.12502
rthumb 25.2984 -51.8649
lclavicle 2.90226e-014 1.98785e-014
lhumerus -41.5258 18.9952 69.3274
lradius 14.9506
lwrist -44.6466
lhand -16.5878 -19.0246
lfingers 7.12502
lthumb 9.63303 10.7351
rfemur -0.954041 25.9511 23.4354
rtibia 0.642464
rfoot -11.5616 -25.6338
rtoes 2.76023
lfemur 5.70709 -38.3959 -13.9621
ltibia -3.98475
lfoot -14.3509 45.1134
ltoes 1.52053
329
root 0.578292 17.5862 8.10204 8.35103 -2.41859 -6.59757
lowerback 12.8092 1.84751 8.63888
upperback -12.2709 4.22872 -2.06193
thorax -20.5556 0.320834 -8.59818
lowerneck -2.28429 11.275 6.30589
upperneck -21.8505 12.9242 -16.327
head -4.5283 6.91731 -6.42176
rclavicle -2.08724e-014 1.90833e-014
rhumerus -57.9111 -21.828 -67.7553
rradius 18.4745
rwrist 44.3619
rhand -0.369483 -23.5072
rfingers 7.12502
rthumb 25.2364 -51.8583
lclavicle -2.08724e-014 1.90833e-014
lhumerus -41.4444 18.7964 69.4507
lradius 14.9856
lwrist -44.5255
lhand -16.6464 -18.9174
lfingers 7.12502
lthumb 9.5765 10.845
rfemur -0.969107 25.9266 23.4256
rtibia 0.658861
rfoot -11.5665 -25.6358
rtoes 2.73869
lfemur 5.67572 -38.3931 -13.9471
ltibia -3.95788
lfoot -14.401 45.0729
ltoes 1.67252
330
root 0.577493 17.5868 8.10187 8.34972 -2.41806 -6.59627
lowerback 12.8188 1.84908 8.60734
upperback -12.2608 4.2186 -2.09101
thorax -20.5508 0.318622 -8.61142
lowerneck -2.24196 11.6452 6.60951
upperneck -21.2541 13.4494 -16.661
head -4.23955 7.1658 -6.51599
rclavicle 1.98785e-016 -1.19271e-014
rhumerus -57.9503 -21.9074 -67.7208
rradius 18.4197
rwrist 44.54
rhand -0.391171 -23.4524
rfingers 7.12502
rthumb 25.2156 -51.8064
lclavicle 1.98785e-016 -1.19271e-014
lhumerus -41.3717 18.5882 69.5507
lradius 15.0034
lwrist -44.3982
lhand -16.718 -18.7739
lfingers 7.12502
lthumb 9.50744 10.9916
rfemur -0.978851 26 23.4213
rtibia 0.664582
rfoot -11.6056 -25.6726
rtoes 2.8283
lfemur 5.65632 -38.3694 -13.9272
ltibia -3.95056
lfoot -14.3529 45.0509
ltoes 1.54265
331
root 0.577012 17.5869 8.10157 8.35095 -2.42653 -6.60772
lowerback 12.8203 1.86693 8.60776
upperback -12.2616 4.23694 -2.12947
thorax -20.5457 0.322741 -8.66195
lowerneck -2.4132 12.0033 6.76557
upperneck -20.3431 14.0094 -16.7194
head -3.85381 7.41182 -6.46616
rclavicle -1.8487e-014 4.77083e-015
rhumerus -58.0489 -21.9563 -67.7064
rradius 18.4421
rwrist 44.5539
rhand -0.339204 -23.4842
rfingers 7.12502
rthumb 25.2654 -51.8312
lclavicle -1.8487e-014 4.77083e-015
lhumerus -41.3013 18.3795 69.6221
lradius 14.9716
lwrist -44.3959
lhand -16.8728 -18.7422
lfingers 7.12502
lthumb 9.35805 11.0301
rfemur -0.972781 26.0208 23.4327
rtibia 0.652186
rfoot -11.6558 -25.6601
rtoes 2.99247
lfemur 5.7053 -38.5011 -13.958
ltibia -3.96559
lfoot -14.451 45.1887
ltoes 1.6705
332
root 0.576578 17.5867 8.10175 8.35518 -2.43084 -6.61154
lowerback 12.8048 1.88664 8.60701
upperback -12.2547 4.25525 -2.16871
thorax -20.5192 0.329173 -8.71049
lowerneck -2.70323 12.3634 6.83904
upperneck -19.2947 14.5931 -16.6365
head -3.42757 7.66028 -6.34273
rclavicle -4.17448e-015 -1.59028e-014
rhumerus -58.095 -21.8306 -67.9027
rradius 18.557
rwrist 44.2745
rhand -0.263602 -23.6629
rfingers 7.12502
rthumb 25.3379 -51.9997
lclavicle -4.17448e-015 -1.59028e-014
lhumerus -41.2194 18.1275 69.7397
lradius 14.9543
lwrist -44.3432
lhand -16.9578 -18.6471
lfingers 7.12502
lthumb 9.27606 11.1288
rfemur -0.97072 26.0105 23.4354
rtibia 0.641896
rfoot -11.6724 -25.6455
rtoes 3.12078
lfemur 5.72098 -38.5888 -13.9772
ltibia -3.95276
lfoot -14.6884 45.2741
ltoes 2.05291
333
root 0.576539 17.5869 8.10185 8.35204 -2.42153 -6.61647
lowerback 12.8003 1.90383 8.60745
upperback -12.2384 4.27445 -2.18799
thorax -20.4884 0.338732 -8.73655
lowerneck -2.82021 12.684 6.91716
upperneck -18.5095 15.0957 -16.6561
head -3.10931 7.88521 -6.28074
rclavicle 2.62396e-014 -9.54166e-015
rhumerus -58.0979 -21.6675 -68.0976
rradius 18.6446
rwrist 44.0274
rhand -0.275413 -23.7379
rfingers 7.12502
rthumb 25.3265 -52.0763
lclavicle 2.62396e-014 -9.54166e-015
lhumerus -41.138 17.8916 69.9107
lradius 14.9672
lwrist -44.2389
lhand -16.8686 -18.5167
lfingers 7.12502
lthumb 9.3621 11.2554
rfemur -0.96219 26.014 23.4433
rtibia 0.631321
rfoot -11.6776 -25.6615
rtoes 3.18518
lfemur 5.67197 -38.4566 -13.925
ltibia -3.93562
lfoot -14.7157 45.1492
ltoes 2.11187
334
root 0.57645 17.587 8.10148 8.3464 -2.39282 -6.63585
lowerback 12.7983 1.92128 8.63258
upperback -12.2056 4.3001 -2.2013
thorax -20.435 0.350653 -8.77001
lowerneck -2.66218 12.9466 7.02053
upperneck -18.1593 15.4746 -16.868
head -2.95777 8.07589 -6.32881
rclavicle 1.09332e-014 -1.59028e-014
rhumerus -58.0799 -21.6373 -68.1476
rradius 18.6687
rwrist 43.9453
rhand -0.310389 -23.6577
rfingers 7.12502
rthumb 25.293 -52.0008
lclavicle 1.09332e-014 -1.59028e-014
lhumerus -41.026 17.7996 70.0213
lradius 14.9638
lwrist -44.3077
lhand -16.7622 -18.5169
lfingers 7.12502
lthumb 9.46482 11.2506
rfemur -0.947389 26.0218 23.4767
rtibia 0.627101
rfoot -11.6756 -25.688
rtoes 3.14103
lfemur 5.65782 -38.3638 -13.8665
ltibia -3.96861
lfoot -14.5933 45.0508
ltoes 1.91613
335
root 0.575068 17.5867 8.09825 8.37983 -2.35566 -6.66728
lowerback 12.7977 1.93257 8.66116
upperback -12.1823 4.31767 -2.22074
thorax -20.3962 0.356234 -8.8115
lowerneck -2.38449 13.1843 7.27694
upperneck -17.9439 15.8 -17.2634
head -2.83814 8.24778 -6.46963
rclavicle 4.33351e-014 3.97569e-015
rhumerus -58.0419 -21.6419 -68.2083
rradius 18.686
rwrist 43.8606
rhand -0.282339 -23.6184
rfingers 7.12502
rthumb 25.3199 -51.9577
lclavicle 4.33351e-014 3.97569e-015
lhumerus -40.8921 17.8192 70.0373
lradius 14.9381
lwrist -44.5102
lhand -16.729 -18.5674
lfingers 7.12502
lthumb 9.49687 11.1986
rfemur -1.01021 26.0429 23.5081
rtibia 0.659778
rfoot -11.637 -25.7284
rtoes 2.95868
lfemur 5.56546 -38.3031 -13.7422
ltibia -3.98171
lfoot -14.3936 44.9764
ltoes 1.50884
336
root 0.573178 17.5864 8.09217 8.42451 -2.32111 -6.6845
lowerback 12.8322 1.93865 8.66749
upperback -12.1659 4.32566 -2.24691
thorax -20.3934 0.356633 -8.84938
lowerneck -2.26481 13.4343 7.52239
upperneck -17.5097 16.172 -17.5141
head -2.63719 8.42586 -6.53784
rclavicle 3.57812e-015 -1.27222e-014
rhumerus -58.0159 -21.7423 -68.1791
rradius 18.6547
rwrist 43.9047
rhand -0.284387 -23.5256
rfingers 7.12502
rthumb 25.318 -51.8652
lclavicle 3.57812e-015 -1.27222e-014
lhumerus -40.7316 17.7706 70.0913
lradius 14.9098
lwrist -44.5734
lhand -16.761 -18.5927
lfingers 7.12502
lthumb 9.46599 11.1747
rfemur -1.11275 26.0482 23.5135
rtibia 0.714473
rfoot -11.6292 -25.7669
rtoes 2.77599
lfemur 5.39172 -38.1771 -13.5913
ltibia -3.92985
lfoot -14.1933 44.8306
ltoes 1.13102
337
root 0.572196 17.5859 8.08769 8.42658 -2.31728 -6.68626
lowerback 12.8933 1.9386 8.66133
upperback -12.1574 4.32514 -2.27376
thorax -20.4217 0.351859 -8.88179
lowerneck -2.26337 13.7326 7.64476
upperneck -16.8579 16.6493 -17.4825
head -2.38132 8.63979 -6.4783
rclavicle -1.92821e-014 -5.56597e-015
rhumerus -58.0249 -21.8485 -68.1237
rradius 18.595
rwrist 43.9836
rhand -0.380784 -23.4214
rfingers 7.12502
rthumb 25.2256 -51.774
lclavicle -1.92821e-014 -5.56597e-015
lhumerus -40.6343 17.5387 70.2127
lradius 14.9293
lwrist -44.3529
lhand -16.8048 -18.5854
lfingers 7.12502
lthumb 9.42374 11.1839
rfemur -1.15045 26.0457 23.5135
rtibia 0.756204
rfoot -11.6781 -25.7626
rtoes 2.94876
lfemur 5.30856 -38.0702 -13.5329
ltibia -3.8771
lfoot -14.1711 44.7229
ltoes 1.13869
338
root 0.571749 17.5852 8.08547 8.42341 -2.33714 -6.68253
lowerback 12.9248 1.93495 8.64738
upperback -12.1544 4.31494 -2.30042
thorax -20.4401 0.344775 -8.90485
lowerneck -2.14894 14.0382 7.86588
upperneck -16.2652 17.1312 -17.5418
head -2.14171 8.86073 -6.4685
rclavicle -2.38542e-015 -7.95139e-015
rhumerus -57.9987 -21.8092 -68.2478
rradius 18.5831
rwrist 43.8612
rhand -0.447815 -23.4991
rfingers 7.12502
rthumb 25.1614 -51.8608
lclavicle -2.38542e-015 -7.95139e-015
lhumerus -40.6061 17.3304 70.2642
lradius 14.9677
lwrist -44.1601
lhand -16.8107 -18.6164
lfingers 7.12502
lthumb 9.41795 11.1532
rfemur -1.17738 26.006 23.4947
rtibia 0.784363
rfoot -11.6835 -25.6937
rtoes 3.17002
lfemur 5.29146 -37.9998 -13.5166
ltibia -3.87972
lfoot -14.1955 44.683
ltoes 1.17891
